<?xml version="1.0" standalone="no"?>
<!DOCTYPE svg PUBLIC "-//W3C//DTD SVG 20010904//EN"
 "http://www.w3.org/TR/2001/REC-SVG-20010904/DTD/svg10.dtd">
<svg version="1.0" xmlns="http://www.w3.org/2000/svg"
 width="300.000000pt" height="300.000000pt" viewBox="0 0 300.000000 300.000000"
 preserveAspectRatio="xMidYMid meet">
<metadata>
Created by potrace 1.11, written by Peter Selinger 2001-2013
</metadata>
<g transform="translate(0.000000,300.000000) scale(0.100000,-0.100000)"
fill="#000000" stroke="none">
<path d="M1311 2251 c-13 -13 -21 -34 -21 -56 0 -31 -5 -38 -35 -52 -30 -14
-35 -22 -35 -50 0 -23 -6 -36 -17 -40 -44 -16 -136 -98 -189 -168 -32 -42 -67
-119 -78 -170 -4 -19 -18 -36 -35 -47 -83 -47 -88 -163 -10 -202 13 -6 25 -20
25 -31 6 -88 43 -264 103 -485 11 -41 22 -86 25 -100 3 -14 9 -38 12 -54 4
-16 23 -43 42 -60 73 -64 131 -128 134 -149 3 -21 8 -22 119 -23 159 -1 184
-13 107 -48 -52 -24 -110 -76 -159 -142 l-38 -52 -64 3 c-101 3 -189 -48 -221
-130 -13 -31 -24 -95 -17 -95 3 0 6 -15 7 -34 1 -70 -38 -66 620 -66 391 0
594 3 594 10 0 6 -20 39 -45 75 -41 57 -43 65 -25 65 11 0 30 -6 42 -12 24
-14 72 -58 63 -58 -3 0 0 -10 7 -23 7 -12 11 -30 9 -39 -2 -16 8 -18 89 -18
l91 0 -4 45 c-5 54 -60 169 -96 202 -37 33 -86 63 -113 69 -41 10 -132 11
-172 2 -34 -8 -40 -6 -54 14 -49 73 -194 180 -264 193 -27 6 -36 20 -36 60 0
18 -3 41 -6 51 -4 14 5 26 33 47 22 15 46 27 54 27 9 0 17 4 19 9 2 5 41 27
88 48 l85 40 -2 64 c-1 35 -5 84 -8 109 -14 114 -18 181 -20 410 -3 278 -8
343 -31 420 -17 59 -59 146 -78 166 -7 6 -23 25 -37 41 -43 51 -160 113 -215
113 -12 0 -29 7 -37 14 -12 13 -38 21 -79 25 -5 1 -7 4 -7 9 11 66 -75 118
-120 73z m-124 -2083 c-2 -7 -15 -41 -27 -76 -23 -62 -23 -62 -36 -36 -20 38
-17 81 6 104 22 22 65 28 57 8z"/>
</g>
</svg>
